STARTFONT 2.1
COMMENT
COMMENT Converted from OpenType font "Q:\font stuff\winfont\Ambiance BT Coalesce.ttf" by "otf2bdf 3.0".
COMMENT
FONT -FreeType-Ambiance BT-Medium-R-Normal--33-330-72-72-P-177-ISO10646-1
SIZE 33 72 72
FONTBOUNDINGBOX 55 44 -14 -16
STARTPROPERTIES 19
FOUNDRY "FreeType"
FAMILY_NAME "Ambiance BT"
WEIGHT_NAME "Medium"
SLANT "R"
SETWIDTH_NAME "Normal"
ADD_STYLE_NAME ""
PIXEL_SIZE 33
POINT_SIZE 330
RESOLUTION_X 72
RESOLUTION_Y 72
SPACING "P"
AVERAGE_WIDTH 177
CHARSET_REGISTRY "ISO10646"
CHARSET_ENCODING "1"
FONT_ASCENT 0
FONT_DESCENT 0
COPYRIGHT "Copyright 1990-2003 as an unpublished work by Bitstream Inc.  All rights reserved.  Confidential."
_OTF_FONTFILE "Q:\font stuff\winfont\Ambiance BT Coalesce.ttf"
_OTF_PSNAME "AmbianceBTCoalesce-Regular"
ENDPROPERTIES
CHARS 225
STARTCHAR 0020
ENCODING 32
SWIDTH 363 0
DWIDTH 12 0
BBX 0 0 0 0
BITMAP
ENDCHAR
STARTCHAR 0021
ENCODING 33
SWIDTH 212 0
DWIDTH 7 0
BBX 12 22 0 0
BITMAP
0010
0030
0060
00C0
0180
0100
0200
0600
0400
0800
0800
1000
1000
2000
2000
2000
2000
0000
0000
2000
C000
C000
ENDCHAR
STARTCHAR 0022
ENCODING 34
SWIDTH 212 0
DWIDTH 7 0
BBX 6 6 2 9
BITMAP
CC
CC
44
44
44
88
ENDCHAR
STARTCHAR 0023
ENCODING 35
SWIDTH 727 0
DWIDTH 24 0
BBX 26 18 2 6
BITMAP
00030000
00040C00
00081800
00102000
00FFFF80
0F304040
38408000
20410000
00820000
00820000
013FFE00
1FC40000
F2040000
82080000
02080000
02080000
02080000
00080000
ENDCHAR
STARTCHAR 0024
ENCODING 36
SWIDTH 303 0
DWIDTH 10 0
BBX 14 23 1 1
BITMAP
0004
0008
0010
0020
0020
00F0
0180
0200
0200
0200
0200
0200
0100
0100
8100
8300
C600
7800
2000
2000
2000
4000
4000
ENDCHAR
STARTCHAR 0025
ENCODING 37
SWIDTH 575 0
DWIDTH 19 0
BBX 24 29 -1 -6
BITMAP
0007F8
001806
001003
001004
019018
031030
022060
0620C0
044180
0C4200
088400
090800
0E1000
002000
004000
008300
008C80
011680
021480
042D00
080900
081100
101200
202400
402400
403800
800000
800000
800000
ENDCHAR
STARTCHAR 0026
ENCODING 38
SWIDTH 727 0
DWIDTH 24 0
BBX 23 29 0 -8
BITMAP
000018
000028
000050
0000A0
0000C0
000300
000D00
003100
00C200
01027C
060386
080E02
101602
202404
604408
404410
C08C20
C08840
E00980
701E00
1FF000
001000
002000
002000
004000
00C000
018000
230000
1E0000
ENDCHAR
STARTCHAR 0027
ENCODING 39
SWIDTH 90 0
DWIDTH 3 0
BBX 2 6 2 9
BITMAP
C0
C0
40
40
80
80
ENDCHAR
STARTCHAR 0028
ENCODING 40
SWIDTH 363 0
DWIDTH 12 0
BBX 18 23 2 -2
BITMAP
0001C0
000E00
003000
004000
008000
030000
060000
0C0000
080000
180000
300000
200000
600000
600000
400000
C00000
C00000
C00000
C00000
C00000
E00000
700000
380000
ENDCHAR
STARTCHAR 0029
ENCODING 41
SWIDTH 393 0
DWIDTH 13 0
BBX 15 24 -4 -2
BITMAP
0038
000C
0004
0002
0002
0002
0002
0002
0002
0002
0004
0004
0004
0008
0008
0010
0020
0020
0040
0080
0300
0400
0800
F000
ENDCHAR
STARTCHAR 002A
ENCODING 42
SWIDTH 393 0
DWIDTH 13 0
BBX 11 11 2 7
BITMAP
0400
0400
2480
1500
0E00
FFE0
0E00
1500
2480
0400
0400
ENDCHAR
STARTCHAR 002B
ENCODING 43
SWIDTH 454 0
DWIDTH 15 0
BBX 11 11 2 1
BITMAP
0400
0400
0400
0400
0400
FFE0
0400
0400
0400
0400
0400
ENDCHAR
STARTCHAR 002C
ENCODING 44
SWIDTH 151 0
DWIDTH 5 0
BBX 4 7 -2 -4
BITMAP
30
30
30
20
40
40
80
ENDCHAR
STARTCHAR 002D
ENCODING 45
SWIDTH 303 0
DWIDTH 10 0
BBX 7 1 1 5
BITMAP
FE
ENDCHAR
STARTCHAR 002E
ENCODING 46
SWIDTH 151 0
DWIDTH 5 0
BBX 3 3 -1 0
BITMAP
20
C0
C0
ENDCHAR
STARTCHAR 002F
ENCODING 47
SWIDTH 454 0
DWIDTH 15 0
BBX 25 28 -1 -4
BITMAP
00000080
00000300
00000400
00001800
00003000
00006000
0000C000
00018000
00020000
00040000
00080000
00100000
00200000
00400000
00800000
01000000
01000000
02000000
04000000
08000000
10000000
10000000
20000000
40000000
40000000
80000000
80000000
80000000
ENDCHAR
STARTCHAR 0030
ENCODING 48
SWIDTH 606 0
DWIDTH 20 0
BBX 19 19 1 -3
BITMAP
00FE00
0FE380
1380C0
260040
4C0020
980020
B00020
A00020
C00020
C00060
800040
C00040
800080
800180
800300
800600
401C00
607000
1F8000
ENDCHAR
STARTCHAR 0031
ENCODING 49
SWIDTH 393 0
DWIDTH 13 0
BBX 15 19 -2 -3
BITMAP
0006
000C
0018
0028
0050
01A0
0040
0040
0080
0100
0100
0200
0200
0400
0400
07C0
3C00
C600
8000
ENDCHAR
STARTCHAR 0032
ENCODING 50
SWIDTH 636 0
DWIDTH 21 0
BBX 21 18 -1 -2
BITMAP
000780
001860
006020
008020
010020
010040
010080
000080
000100
000600
000800
003000
004000
0180C0
FE0030
F38008
007808
0007F0
ENDCHAR
STARTCHAR 0033
ENCODING 51
SWIDTH 666 0
DWIDTH 22 0
BBX 21 19 -1 -3
BITMAP
0003E0
001C18
002008
000008
000010
000020
0003C0
001F00
0000C0
000020
000010
3E0010
418010
807030
800020
8000C0
400380
301E00
0FF000
ENDCHAR
STARTCHAR 0034
ENCODING 52
SWIDTH 696 0
DWIDTH 23 0
BBX 22 22 0 -4
BITMAP
000008
000010
000020
000040
000080
000300
000600
001A00
002400
00C818
030804
FC1004
FF901C
00EFF0
002000
006000
004000
004000
004000
004000
002000
002000
ENDCHAR
STARTCHAR 0035
ENCODING 53
SWIDTH 666 0
DWIDTH 22 0
BBX 27 21 -3 -3
BITMAP
007C0040
00838020
00406040
00041F80
000C0000
00080000
00180000
0011F800
00360400
00280200
00000200
00000200
00000600
00000400
01E00800
1E001000
60006000
8000C000
80070000
403C0000
3FC00000
ENDCHAR
STARTCHAR 0036
ENCODING 54
SWIDTH 545 0
DWIDTH 18 0
BBX 16 23 0 -7
BITMAP
0001
000E
0030
0040
0180
0200
0400
0800
1000
201E
20E3
4101
4201
8C03
9002
A00C
A018
E0E0
7F00
4000
4000
4000
2000
ENDCHAR
STARTCHAR 0037
ENCODING 55
SWIDTH 454 0
DWIDTH 15 0
BBX 17 19 1 -3
BITMAP
FF0080
80FF00
400400
001800
002000
004000
008000
010000
020000
040000
080000
180000
100000
200000
200000
400000
400000
400000
400000
ENDCHAR
STARTCHAR 0038
ENCODING 56
SWIDTH 575 0
DWIDTH 19 0
BBX 32 23 -2 -3
BITMAP
00000003
0000001C
00000060
00000180
0003FE00
001C1400
00302200
0040C000
00410000
00460000
00280000
00380000
00C40000
01020000
02020000
0C010000
10010000
20010000
40020000
80060000
80180000
C0E00000
7F000000
ENDCHAR
STARTCHAR 0039
ENCODING 57
SWIDTH 545 0
DWIDTH 18 0
BBX 21 22 1 -6
BITMAP
000FF0
00F018
030008
0C0600
100400
200800
401800
803000
806000
81C000
C64000
7C8000
010000
010000
020000
020000
040000
040000
080000
080000
080000
080000
ENDCHAR
STARTCHAR 003A
ENCODING 58
SWIDTH 181 0
DWIDTH 6 0
BBX 5 8 -1 0
BITMAP
08
18
10
00
00
40
C0
80
ENDCHAR
STARTCHAR 003B
ENCODING 59
SWIDTH 181 0
DWIDTH 6 0
BBX 6 13 -2 -5
BITMAP
04
0C
08
00
00
00
30
30
30
20
40
40
80
ENDCHAR
STARTCHAR 003C
ENCODING 60
SWIDTH 454 0
DWIDTH 15 0
BBX 6 10 4 1
BITMAP
04
08
10
20
40
80
C0
30
18
04
ENDCHAR
STARTCHAR 003D
ENCODING 61
SWIDTH 454 0
DWIDTH 15 0
BBX 10 4 2 4
BITMAP
FFC0
0000
0000
FFC0
ENDCHAR
STARTCHAR 003E
ENCODING 62
SWIDTH 454 0
DWIDTH 15 0
BBX 6 10 4 1
BITMAP
80
60
30
1C
04
08
10
20
40
80
ENDCHAR
STARTCHAR 003F
ENCODING 63
SWIDTH 606 0
DWIDTH 20 0
BBX 22 24 1 0
BITMAP
003F00
03C0C0
0C0030
180008
200004
600004
C0000C
C18018
7E0030
0000E0
0003C0
000E00
007800
01C000
070000
0C0000
100000
200000
400000
200000
000000
200000
C00000
C00000
ENDCHAR
STARTCHAR 0040
ENCODING 64
SWIDTH 909 0
DWIDTH 30 0
BBX 28 23 1 1
BITMAP
0001F800
000F0C00
003807C0
00600360
01800130
03000110
0600E110
0C039110
08060110
100C4320
2018C220
20338620
40258440
40490880
80511980
80A12100
80C1C200
80000C00
80001000
40006000
60018000
380E0000
07F00000
ENDCHAR
STARTCHAR 0041
ENCODING 65
SWIDTH 878 0
DWIDTH 29 0
BBX 35 26 -4 -4
BITMAP
000007F800
0000380780
0000C000E0
0001000020
0001000040
0001000080
0000800080
0000400300
0000000500
0000000900
0000001200
0000002200
0000002400
0000FFF400
000F008B00
0070010800
0380021000
0600041000
1800081000
3000102000
6000202000
C000C02000
8003002000
800C002400
C070001800
3F80000000
ENDCHAR
STARTCHAR 0042
ENCODING 66
SWIDTH 909 0
DWIDTH 30 0
BBX 29 27 2 -4
BITMAP
0003FE00
003C0180
01C00060
07000030
0C000418
18001808
30003008
60002008
40004008
C0008010
80008020
80010040
80020080
80020300
80040C00
800C3000
40087800
40100700
20100080
10200040
10400040
08800040
1FE00080
611E0300
8283FC00
8C000000
70000000
ENDCHAR
STARTCHAR 0043
ENCODING 67
SWIDTH 818 0
DWIDTH 27 0
BBX 25 24 2 -3
BITMAP
0003F800
07EC1C00
38360700
60C1C100
C1003180
82000C80
84000380
88000000
50000000
2C000000
20000000
40000000
40000000
80000000
80000000
80000000
80000200
80000400
80000800
C0001000
40006000
60018000
380E0000
0FF00000
ENDCHAR
STARTCHAR 0044
ENCODING 68
SWIDTH 1030 0
DWIDTH 34 0
BBX 32 25 1 -2
BITMAP
00000080
00000100
03FC0200
1C03C400
20003C00
40000A00
40001980
40003040
40002030
20006008
1000C004
08008004
06018002
01E30002
00020001
00040001
000C0001
00080001
00100001
00200002
00400006
F880000C
87800018
43FC00E0
3C07FF00
ENDCHAR
STARTCHAR 0045
ENCODING 69
SWIDTH 939 0
DWIDTH 31 0
BBX 32 27 0 -4
BITMAP
03E00000
0C1E0000
10038000
10007000
20001E00
20000780
200000F8
20000C1F
20000800
20001800
20003000
10002000
10006000
08004000
0807FF00
04388000
04008000
02010000
01030000
00020000
3F060000
C1FC0000
80080000
20170008
1060E004
0F801E04
000001F8
ENDCHAR
STARTCHAR 0046
ENCODING 70
SWIDTH 1060 0
DWIDTH 35 0
BBX 40 28 1 -6
BITMAP
000FE00000
00F01E0000
070001C000
0C00003800
3000000600
20000003C0
4000000238
C000000607
8000000400
8000000400
8000000800
800007FF00
80007E0800
8003E01000
4007001000
401C002000
4010002000
2020004000
1040004000
1040008000
0880010000
0480010000
0080020000
0080040000
0080080000
0040300000
0060C00000
001F000000
ENDCHAR
STARTCHAR 0047
ENCODING 71
SWIDTH 787 0
DWIDTH 26 0
BBX 32 36 -4 -14
BITMAP
000001FC
00000E03
00003001
0000C000
00030000
00040000
00180000
00200000
00400006
00400078
008003A0
01001C20
01006040
010180C0
02060140
02180280
02200480
02C01880
03003100
0300C100
07830200
0CFC0200
18000400
30000400
20000800
40000800
40001000
C0001000
80002000
80004000
80008000
80010000
40020000
400C0000
30300000
0FC00000
ENDCHAR
STARTCHAR 0048
ENCODING 72
SWIDTH 909 0
DWIDTH 30 0
BBX 40 28 -3 -3
BITMAP
0000000001
0000000002
0000000004
0000000008
000000C010
00001F8010
0007E08020
0038018040
0040010040
0080010080
0100020080
0100020100
0100020100
0100040200
0100040200
0180080700
019FFFFC00
03E0100400
0E80200800
3040200800
6020400800
4000800800
8001001000
8002001000
8004001000
C018001000
6060001000
3F80000000
ENDCHAR
STARTCHAR 0049
ENCODING 73
SWIDTH 666 0
DWIDTH 22 0
BBX 27 25 -2 -3
BITMAP
00000080
00001FE0
0003E180
001C0100
00200100
00C00300
00800200
01000200
01000600
01000400
01000C00
01000800
00801800
004FFF00
01F01000
06102000
18004000
20004000
40008000
80010000
80020000
80040000
C0180000
60600000
3F800000
ENDCHAR
STARTCHAR 004A
ENCODING 74
SWIDTH 666 0
DWIDTH 22 0
BBX 30 31 -6 -8
BITMAP
0000000C
000007FC
00007808
00018018
00060010
000C0010
00180020
00100020
00100020
00080040
00000040
00000040
00000080
00000080
00000100
00000100
0003FF80
007E0200
03E00400
07000400
1C000800
30001000
60002000
40002000
80004000
80008000
80010000
80060000
C0080000
60300000
1FC00000
ENDCHAR
STARTCHAR 004B
ENCODING 75
SWIDTH 939 0
DWIDTH 31 0
BBX 39 26 -2 -1
BITMAP
0000000002
0000000004
0001FF8008
001E018008
00E0018010
0100010020
0200010040
0400030180
0400020200
0400020C00
0400447000
0600478000
0200780000
0307F00000
01F8300000
0280380200
0C60480200
3000840200
4001020100
4002010100
8004008100
8008004300
8010003E00
C020000000
60C0000000
3F00000000
ENDCHAR
STARTCHAR 004C
ENCODING 76
SWIDTH 787 0
DWIDTH 26 0
BBX 30 26 -3 -4
BITMAP
00000060
00000190
00000310
00000610
00000610
00000C20
00000820
00001840
00001080
00003100
00002200
00006000
00004000
0000C000
0000C000
00018000
00018000
00030000
00020000
7F060000
81FC0000
40180000
401F0008
3061E004
0F803E04
000003F8
ENDCHAR
STARTCHAR 004D
ENCODING 77
SWIDTH 848 0
DWIDTH 28 0
BBX 34 30 -6 -6
BITMAP
01FF200000
1E03E00000
6000700000
C000400000
8000407000
8000419000
4000831040
00008410C0
0000882080
0001102180
0001306700
0002604900
000240D200
000480A200
0005012400
000A034400
000E028400
0014050800
0018060800
00300C0800
0050081800
0060001000
00C0001000
0080001000
0180001080
0300001080
0000001080
0000001100
0000000900
0000000600
ENDCHAR
STARTCHAR 004E
ENCODING 78
SWIDTH 818 0
DWIDTH 27 0
BBX 27 33 1 -8
BITMAP
07800000
08400000
10200000
202000E0
60300320
40100620
C0100820
80101060
80102040
801040C0
80108080
80110180
80120100
80140200
40280600
40300400
20300C00
10200800
00601800
00E01000
01402000
02C02000
04806000
09804000
11004000
1300C000
26008000
4C008000
70008800
00008800
00008800
00005000
00006000
ENDCHAR
STARTCHAR 004F
ENCODING 79
SWIDTH 787 0
DWIDTH 26 0
BBX 24 27 2 -4
BITMAP
000FE0
007038
01800C
060006
080002
101003
202001
40C001
410001
820001
840001
840002
880002
900002
900004
900004
E00008
600008
600010
200020
300060
3800C0
2E0180
130300
18EC00
0C3800
03E600
ENDCHAR
STARTCHAR 0050
ENCODING 80
SWIDTH 757 0
DWIDTH 25 0
BBX 25 25 1 -2
BITMAP
007E0000
0781D800
38007800
40009400
80009200
80010100
80020080
40020080
30040080
0F040080
00080100
00080100
00080600
00103800
01FFC000
00200000
00200000
00400000
00400000
00800000
00800000
01000000
0FFC0000
B6000000
78000000
ENDCHAR
STARTCHAR 0051
ENCODING 81
SWIDTH 787 0
DWIDTH 26 0
BBX 24 35 2 -11
BITMAP
000080
007F80
0388F0
043018
08400C
108006
230002
440003
480001
980001
900001
A00001
C00001
C00002
800002
800004
800004
C00008
C00008
C00010
A00020
A00060
D000C0
500180
680200
380C00
1C3800
07C000
010010
008010
006008
003008
000808
000618
0001F0
ENDCHAR
STARTCHAR 0052
ENCODING 82
SWIDTH 909 0
DWIDTH 30 0
BBX 29 27 2 -4
BITMAP
0003F800
003C0700
01C01CC0
06002430
0C004810
10008008
20010008
60010008
40020010
C0020010
800C0020
800C00C0
80080100
80080600
800C1800
800CE000
401A0000
40120040
20310040
10208040
10604020
08402020
04C01020
03800860
030007C0
46C00000
3C000000
ENDCHAR
STARTCHAR 0053
ENCODING 83
SWIDTH 666 0
DWIDTH 22 0
BBX 27 27 -3 -5
BITMAP
00007F00
0001C0C0
00060060
000C0020
00080020
00082060
00081F80
00080000
00040000
00020000
00010000
007CC000
01863000
02030C00
04010600
08010200
08010300
10010300
10020300
10060300
100C0700
10300600
C8E00E00
3F001C00
04007000
0301E000
00FF0000
ENDCHAR
STARTCHAR 0054
ENCODING 84
SWIDTH 939 0
DWIDTH 31 0
BBX 41 27 -3 -5
BITMAP
003FE0000000
01C01E000000
0E0001C00000
180000300000
3000000E0000
600000078000
400000067100
C00000040F80
800000040000
8000000C0000
800000080000
800000180000
800000100000
800000100000
400000200000
400000600000
200000400000
200000C00000
102000800000
102001000000
084003000000
044006000000
00400C000000
004018000000
002020000000
0030C0000000
000F00000000
ENDCHAR
STARTCHAR 0055
ENCODING 85
SWIDTH 878 0
DWIDTH 29 0
BBX 29 27 1 -6
BITMAP
03FE0000
1C03F000
60003000
80002000
80002008
80004018
40008010
20008030
00010060
00010060
000201C0
000201C0
00040280
00040480
00080580
00080900
00081100
00101100
00102200
00104200
00108200
00130210
001C0210
00000210
00000220
00000120
000000C0
ENDCHAR
STARTCHAR 0056
ENCODING 86
SWIDTH 696 0
DWIDTH 23 0
BBX 33 28 2 -4
BITMAP
0000000180
1E00000E00
6300003000
4180004000
8080008000
8040010000
8040020000
8040040000
8040080000
8020100000
4020200000
4020200000
2020400000
1020800000
0821000000
0021000000
0022000000
0024000000
0024000000
0068000000
0050000000
0050000000
0060000000
00E0000000
00C0000000
0180000000
0300000000
0300000000
ENDCHAR
STARTCHAR 0057
ENCODING 87
SWIDTH 1151 0
DWIDTH 38 0
BBX 37 29 2 -7
BITMAP
0F800001E0
10C0000030
2020000010
4030000008
4010000008
8010000008
8008000008
8008000008
8008020008
8008060008
80080E0010
4008160010
40081C0010
20082C0020
10084C0020
0808880060
0410880040
00111800C0
0012180180
0014100100
0024100300
0028100600
0030100C00
0070101800
0060103000
00C008E000
0080078000
0180000000
0300000000
ENDCHAR
STARTCHAR 0058
ENCODING 88
SWIDTH 727 0
DWIDTH 24 0
BBX 34 28 -1 -4
BITMAP
00000000C0
0000000300
0001180C00
000FE01000
0072006000
0182008000
0606010000
0806020000
0804040000
1004080000
1004300000
1004400000
1004800000
1005000000
0806000000
0804000000
0804000000
040C000000
0014020000
0022020000
0042040000
0183040000
0201880000
0400F00000
0800000000
1000000000
6000000000
8000000000
ENDCHAR
STARTCHAR 0059
ENCODING 89
SWIDTH 878 0
DWIDTH 29 0
BBX 36 37 -5 -16
BITMAP
0007FC0000
003803E000
00C0006000
0180004000
0100008000
0100008080
0080010080
0000020080
0000020180
0000040380
0000080580
0000080500
0000100900
0000101100
0000202200
0000202200
0000404200
0000408400
0000810400
0000820400
0000840800
0000980800
0000E00800
00FFFC1010
0F0007F010
3000002FE0
4000002000
8000004000
8000008000
8000010000
8000020000
8000020000
40000C0000
6000100000
3000600000
0E01800000
03FE000000
ENDCHAR
STARTCHAR 005A
ENCODING 90
SWIDTH 909 0
DWIDTH 30 0
BBX 38 24 -5 -3
BITMAP
0000FFF000
0003001FFC
0006000080
0004000300
0004000400
0000001800
0000002000
0000004000
0000008000
0000010000
00001FF000
0000E40000
0003080000
0000100000
0000603E00
0000C00380
00018000C0
0002000060
000C000020
3F10000020
40EC000020
8383C00040
FC003E0180
000001FE00
ENDCHAR
STARTCHAR 005B
ENCODING 91
SWIDTH 424 0
DWIDTH 14 0
BBX 17 24 1 -4
BITMAP
000F80
003000
006000
004000
008000
010000
010000
020000
060000
040000
080000
080000
100000
100000
200000
200000
400000
400000
400000
800000
800000
800000
C00000
FE0000
ENDCHAR
STARTCHAR 005C
ENCODING 92
SWIDTH 545 0
DWIDTH 18 0
BBX 16 27 1 -4
BITMAP
8000
4000
6000
3000
1800
0C00
0400
0200
0300
0100
0080
0040
0040
0020
0010
0010
0008
0008
0004
0004
0002
0002
0001
0001
0001
0001
0001
ENDCHAR
STARTCHAR 005D
ENCODING 93
SWIDTH 424 0
DWIDTH 14 0
BBX 16 24 -3 -4
BITMAP
001F
0001
0001
0001
0001
0001
0002
0002
0002
0006
0004
0004
000C
0008
0018
0010
0030
0020
0040
00C0
0080
0100
0600
FC00
ENDCHAR
STARTCHAR 005E
ENCODING 94
SWIDTH 363 0
DWIDTH 12 0
BBX 9 4 4 12
BITMAP
0800
3C00
4300
8180
ENDCHAR
STARTCHAR 005F
ENCODING 95
SWIDTH 818 0
DWIDTH 27 0
BBX 26 1 0 -3
BITMAP
FFFFFFC0
ENDCHAR
STARTCHAR 0060
ENCODING 96
SWIDTH 363 0
DWIDTH 12 0
BBX 6 4 3 12
BITMAP
C0
60
18
04
ENDCHAR
STARTCHAR 0061
ENCODING 97
SWIDTH 303 0
DWIDTH 10 0
BBX 12 10 -2 -1
BITMAP
00E0
03D0
0780
1A80
3300
2500
4A00
5200
A380
C000
ENDCHAR
STARTCHAR 0062
ENCODING 98
SWIDTH 272 0
DWIDTH 9 0
BBX 11 21 -1 -1
BITMAP
0060
00C0
0080
0180
0300
0200
0400
0C00
0980
1280
1480
2900
3100
6200
6200
C400
8400
8800
1000
A000
C000
ENDCHAR
STARTCHAR 0063
ENCODING 99
SWIDTH 212 0
DWIDTH 7 0
BBX 7 9 -1 0
BITMAP
06
0A
10
20
40
44
88
90
E0
ENDCHAR
STARTCHAR 0064
ENCODING 100
SWIDTH 363 0
DWIDTH 12 0
BBX 17 22 -1 0
BITMAP
000180
000100
000300
000200
000600
000400
000800
000800
001000
001000
002000
012000
07A000
0C4000
184000
10C000
218000
428000
448000
888000
90A000
E0C000
ENDCHAR
STARTCHAR 0065
ENCODING 101
SWIDTH 242 0
DWIDTH 8 0
BBX 9 10 -1 0
BITMAP
0600
0D00
0900
1280
2D00
F200
4400
8800
9000
E000
ENDCHAR
STARTCHAR 0066
ENCODING 102
SWIDTH 212 0
DWIDTH 7 0
BBX 22 30 -8 -8
BITMAP
000070
0000C8
000184
000104
000304
000200
000600
000400
000400
000800
000800
001000
001000
007E00
00E000
002000
002000
002000
004000
004000
004000
008000
008000
010000
010000
030000
820000
860000
8C0000
780000
ENDCHAR
STARTCHAR 0067
ENCODING 103
SWIDTH 303 0
DWIDTH 10 0
BBX 19 23 -9 -12
BITMAP
0001C0
000720
000C00
001800
003100
006300
004F00
009200
01A200
014600
018400
000800
000800
001000
001000
002000
006000
004000
80C000
818000
810000
460000
380000
ENDCHAR
STARTCHAR 0068
ENCODING 104
SWIDTH 333 0
DWIDTH 11 0
BBX 15 23 -1 -1
BITMAP
0006
000E
000A
0014
0024
0068
0050
0090
0120
0140
0280
0580
0740
0EC0
0980
1380
3280
2500
2900
5100
6140
C180
8000
ENDCHAR
STARTCHAR 0069
ENCODING 105
SWIDTH 151 0
DWIDTH 5 0
BBX 7 11 -1 0
BITMAP
06
04
18
30
20
60
40
40
90
A0
C0
ENDCHAR
STARTCHAR 006A
ENCODING 106
SWIDTH 121 0
DWIDTH 4 0
BBX 18 24 -14 -13
BITMAP
0000C0
000080
000000
000180
000100
000100
000100
000300
000200
000200
000400
000400
000C00
000800
001800
001000
002000
002000
004000
004000
808000
410000
460000
380000
ENDCHAR
STARTCHAR 006B
ENCODING 107
SWIDTH 303 0
DWIDTH 10 0
BBX 10 18 -2 -2
BITMAP
0040
0080
0180
0180
0100
0200
0200
0400
0840
0880
1100
3600
5800
5000
8800
8440
0240
0180
ENDCHAR
STARTCHAR 006C
ENCODING 108
SWIDTH 181 0
DWIDTH 6 0
BBX 12 21 0 -1
BITMAP
0070
00D0
00B0
0120
0240
0640
0480
0900
0900
1200
1400
2400
2800
7000
6000
4000
8000
8000
8000
A000
C000
ENDCHAR
STARTCHAR 006D
ENCODING 109
SWIDTH 454 0
DWIDTH 15 0
BBX 15 11 -1 0
BITMAP
1000
1000
10C0
2140
224C
2888
50B8
6158
A1D0
C312
8014
ENDCHAR
STARTCHAR 006E
ENCODING 110
SWIDTH 303 0
DWIDTH 10 0
BBX 9 9 -1 1
BITMAP
0C80
1D80
2B00
5700
9A00
B200
2200
6380
4000
ENDCHAR
STARTCHAR 006F
ENCODING 111
SWIDTH 242 0
DWIDTH 8 0
BBX 8 11 -1 0
BITMAP
0E
31
21
79
51
62
42
44
88
90
E0
ENDCHAR
STARTCHAR 0070
ENCODING 112
SWIDTH 272 0
DWIDTH 9 0
BBX 14 20 -6 -11
BITMAP
004C
0094
01A4
0148
0388
0310
0420
0460
08C0
0F00
1000
1000
2000
2000
4000
4000
8000
8000
A000
C000
ENDCHAR
STARTCHAR 0071
ENCODING 113
SWIDTH 272 0
DWIDTH 9 0
BBX 11 22 -2 -13
BITMAP
00E0
0360
06C0
0980
1280
3500
6900
5200
A200
C400
0400
0400
0800
0800
0800
1800
1000
1000
1000
1200
1400
0C00
ENDCHAR
STARTCHAR 0072
ENCODING 114
SWIDTH 242 0
DWIDTH 8 0
BBX 8 11 -1 1
BITMAP
10
10
13
15
29
30
30
20
40
40
80
ENDCHAR
STARTCHAR 0073
ENCODING 115
SWIDTH 181 0
DWIDTH 6 0
BBX 8 10 -2 -1
BITMAP
07
08
10
10
10
10
10
12
1C
E0
ENDCHAR
STARTCHAR 0074
ENCODING 116
SWIDTH 242 0
DWIDTH 8 0
BBX 10 17 -1 -2
BITMAP
0040
0080
0180
0300
0200
0600
0400
0800
7F00
D000
1000
2000
2000
4000
4000
4000
6000
ENDCHAR
STARTCHAR 0075
ENCODING 117
SWIDTH 303 0
DWIDTH 10 0
BBX 9 9 -1 0
BITMAP
1880
2880
1100
1300
2600
4A00
5200
A280
C300
ENDCHAR
STARTCHAR 0076
ENCODING 118
SWIDTH 212 0
DWIDTH 7 0
BBX 8 12 0 0
BITMAP
41
42
44
48
50
50
A0
40
C0
80
80
80
ENDCHAR
STARTCHAR 0077
ENCODING 119
SWIDTH 424 0
DWIDTH 14 0
BBX 15 12 0 -1
BITMAP
2000
2010
6010
2010
2210
4E12
4A34
5248
A240
A280
C300
8000
ENDCHAR
STARTCHAR 0078
ENCODING 120
SWIDTH 242 0
DWIDTH 8 0
BBX 11 13 -3 -1
BITMAP
0820
0440
0580
0700
0600
0C00
1400
2400
2400
4400
8200
8000
8000
ENDCHAR
STARTCHAR 0079
ENCODING 121
SWIDTH 272 0
DWIDTH 9 0
BBX 16 21 -8 -12
BITMAP
0020
0061
00A7
0169
0153
0062
00E2
00C6
0184
0004
0008
0008
0010
0010
0020
0060
0040
8080
8100
4600
7800
ENDCHAR
STARTCHAR 007A
ENCODING 122
SWIDTH 272 0
DWIDTH 9 0
BBX 12 9 -3 -1
BITMAP
03F0
0430
0040
0180
0200
0400
1800
3C20
C3C0
ENDCHAR
STARTCHAR 007B
ENCODING 123
SWIDTH 424 0
DWIDTH 14 0
BBX 13 29 2 -5
BITMAP
0038
00E0
0080
0180
0100
0300
0300
0300
0200
0200
0200
0600
0400
0C00
1800
E000
1000
0800
0800
0800
0800
0800
1000
1000
1000
1000
1000
1000
0800
ENDCHAR
STARTCHAR 007C
ENCODING 124
SWIDTH 242 0
DWIDTH 8 0
BBX 3 26 3 -5
BITMAP
20
20
20
20
20
20
20
20
20
20
20
20
20
40
40
40
40
40
40
40
40
40
80
80
80
80
ENDCHAR
STARTCHAR 007D
ENCODING 125
SWIDTH 424 0
DWIDTH 14 0
BBX 12 29 1 -5
BITMAP
0380
00C0
0040
0040
0040
0040
0080
0080
0080
0100
0100
0100
0100
0100
01C0
0070
0080
0300
0400
0400
0800
0800
0800
1800
1000
1000
2000
4000
8000
ENDCHAR
STARTCHAR 007E
ENCODING 126
SWIDTH 363 0
DWIDTH 12 0
BBX 9 2 5 14
BITMAP
7080
8F00
ENDCHAR
STARTCHAR 00A0
ENCODING 160
SWIDTH 363 0
DWIDTH 12 0
BBX 0 0 0 0
BITMAP
ENDCHAR
STARTCHAR 00A1
ENCODING 161
SWIDTH 212 0
DWIDTH 7 0
BBX 9 24 -2 -10
BITMAP
0080
0300
0300
0000
0000
0400
0800
1000
1000
2000
2000
2000
4000
4000
4000
4000
8000
8000
8000
8000
8000
8000
8000
8000
ENDCHAR
STARTCHAR 00A2
ENCODING 162
SWIDTH 484 0
DWIDTH 16 0
BBX 14 17 2 -2
BITMAP
000C
0018
00F0
0350
0480
0900
1200
2400
6800
4800
9040
A180
E600
B800
4000
8000
8000
ENDCHAR
STARTCHAR 00A3
ENCODING 163
SWIDTH 818 0
DWIDTH 27 0
BBX 26 24 0 -2
BITMAP
00000600
00001900
00001100
00002100
00006000
0000C000
00008000
00018000
00010000
00030000
00020000
003FF000
00040000
00040000
00080000
00080000
00100000
00100000
00200000
00400000
7E400000
81E00040
C31F80C0
7C00FF00
ENDCHAR
STARTCHAR 00A4
ENCODING 164
SWIDTH 636 0
DWIDTH 21 0
BBX 20 16 0 -1
BITMAP
0003E0
001C10
006000
018000
030000
060000
3FFC00
080000
100000
FFF000
200000
200080
200300
200C00
303000
1FC000
ENDCHAR
STARTCHAR 00A5
ENCODING 165
SWIDTH 393 0
DWIDTH 13 0
BBX 16 19 2 0
BITMAP
0001
1002
180C
1810
0820
0840
0880
0900
0A00
0C00
FF00
1000
FF00
2000
2000
6000
6000
4000
C000
ENDCHAR
STARTCHAR 00A7
ENCODING 167
SWIDTH 515 0
DWIDTH 17 0
BBX 14 20 4 -1
BITMAP
01F0
070C
0C04
1804
3008
3010
6020
6000
A000
9000
8800
8400
8200
4200
2100
1300
0E00
0400
0C00
F800
ENDCHAR
STARTCHAR 00A8
ENCODING 168
SWIDTH 363 0
DWIDTH 12 0
BBX 7 3 4 12
BITMAP
22
CC
CC
ENDCHAR
STARTCHAR 00A9
ENCODING 169
SWIDTH 636 0
DWIDTH 21 0
BBX 18 15 2 1
BITMAP
007E00
01B900
06C480
090440
120040
240040
4C0040
480080
900080
900100
902200
90C400
4F1800
306000
1F8000
ENDCHAR
STARTCHAR 00AA
ENCODING 170
SWIDTH 303 0
DWIDTH 10 0
BBX 9 11 2 6
BITMAP
0300
0E80
1E00
1C00
3400
6800
4C00
C800
8000
1C00
E000
ENDCHAR
STARTCHAR 00AB
ENCODING 171
SWIDTH 393 0
DWIDTH 13 0
BBX 11 10 1 1
BITMAP
0420
0840
1080
2100
4200
C600
C600
6300
2100
1080
ENDCHAR
STARTCHAR 00AC
ENCODING 172
SWIDTH 454 0
DWIDTH 15 0
BBX 11 5 2 2
BITMAP
FFE0
0020
0020
0020
0020
ENDCHAR
STARTCHAR 00AE
ENCODING 174
SWIDTH 636 0
DWIDTH 21 0
BBX 18 15 2 1
BITMAP
007E00
03F900
064680
18C240
208240
410640
421C40
86F080
848080
888100
884200
902400
501800
306000
1F8000
ENDCHAR
STARTCHAR 00AF
ENCODING 175
SWIDTH 363 0
DWIDTH 12 0
BBX 8 1 3 12
BITMAP
FF
ENDCHAR
STARTCHAR 00B0
ENCODING 176
SWIDTH 242 0
DWIDTH 8 0
BBX 6 6 1 12
BITMAP
78
CC
84
84
CC
78
ENDCHAR
STARTCHAR 00B1
ENCODING 177
SWIDTH 454 0
DWIDTH 15 0
BBX 11 11 2 1
BITMAP
0400
0400
0400
0400
FFE0
0400
0400
0400
0400
0000
FFE0
ENDCHAR
STARTCHAR 00B4
ENCODING 180
SWIDTH 363 0
DWIDTH 12 0
BBX 6 4 5 12
BITMAP
0C
18
60
80
ENDCHAR
STARTCHAR 00B5
ENCODING 181
SWIDTH 515 0
DWIDTH 17 0
BBX 18 21 -1 -6
BITMAP
0C0600
0C0600
0C0600
0C0600
080C00
180C00
180C00
180C00
181800
381840
381840
283880
2C4D80
278F00
600000
600000
600000
600000
E00000
E00000
C00000
ENDCHAR
STARTCHAR 00B6
ENCODING 182
SWIDTH 545 0
DWIDTH 18 0
BBX 18 24 2 -4
BITMAP
0000C0
007F80
03FB00
07F200
0FF600
1FE400
1FEC00
1FC800
0FC800
079000
019000
011000
012000
032000
024000
024000
048000
048000
090000
090000
100000
100000
200000
C00000
ENDCHAR
STARTCHAR 00B7
ENCODING 183
SWIDTH 151 0
DWIDTH 5 0
BBX 3 3 1 4
BITMAP
20
C0
C0
ENDCHAR
STARTCHAR 00B8
ENCODING 184
SWIDTH 363 0
DWIDTH 12 0
BBX 4 8 1 -8
BITMAP
20
40
40
60
30
10
10
E0
ENDCHAR
STARTCHAR 00BA
ENCODING 186
SWIDTH 242 0
DWIDTH 8 0
BBX 5 10 2 7
BITMAP
38
48
48
A8
48
50
90
A0
A0
F0
ENDCHAR
STARTCHAR 00BB
ENCODING 187
SWIDTH 393 0
DWIDTH 13 0
BBX 11 10 0 1
BITMAP
2100
1080
18C0
0C60
0C60
0840
1080
2100
4200
8400
ENDCHAR
STARTCHAR 00BF
ENCODING 191
SWIDTH 606 0
DWIDTH 20 0
BBX 23 25 -4 -11
BITMAP
000002
00000C
00000C
000000
000000
000000
000010
000020
000020
0000C0
000300
000C00
007000
01C000
070000
180000
300000
400078
C00788
800008
800010
800020
4000C0
380700
07F800
ENDCHAR
STARTCHAR 00C0
ENCODING 192
SWIDTH 878 0
DWIDTH 29 0
BBX 35 31 -4 -4
BITMAP
0000006000
0000003000
0000000C00
0000000200
0000000000
000007F800
0000380780
0000C000E0
0001000020
0001000040
0001000040
0000800080
0000400280
0000000500
0000000900
0000001200
0000002200
0000002400
0000FFF400
000F008B00
0070010800
0380021000
0600041000
1800081000
3000102000
6000202000
C000C02000
8003002000
800C002000
C070001800
3F80000000
ENDCHAR
STARTCHAR 00C1
ENCODING 193
SWIDTH 878 0
DWIDTH 29 0
BBX 36 31 -4 -4
BITMAP
00000000C0
0000000180
0000000600
0000000800
0000000000
000007FC00
0000380780
0000C000F0
0001000020
0001000060
0001000040
0000C000C0
0000000280
0000000580
0000000900
0000001300
0000002200
0000002200
0000FFF600
000F004D00
0070008800
0380010800
0600021000
1800041000
3000181000
6000202000
C000402000
8001802000
8006002000
C078001800
3F80000000
ENDCHAR
STARTCHAR 00C2
ENCODING 194
SWIDTH 878 0
DWIDTH 29 0
BBX 35 31 -4 -4
BITMAP
0000000400
0000001E00
0000002180
00000040C0
0000000000
000007FC00
0000380780
0000C000E0
0001000020
0001000040
0001000040
0000800080
0000400280
0000000500
0000000900
0000001200
0000002200
0000002200
0000FFF400
000F008F00
0070010800
0380020800
0600041000
1800081000
3000102000
6000202000
C000C02000
8001002000
800E002000
C070001800
3F80000000
ENDCHAR
STARTCHAR 00C3
ENCODING 195
SWIDTH 878 0
DWIDTH 29 0
BBX 35 30 -4 -4
BITMAP
0000007000
0000008C40
0000000380
0000000000
000007F800
0000380F80
0000C000E0
0001000040
0001000040
0001000080
0000800080
0000400700
0000000900
0000001200
0000001200
0000002600
0000004400
0000FFE400
001F009B00
00E0010800
0380021000
0E00041000
1800081000
3000102000
6000602000
C000802000
8003002000
800C002400
C070001800
3F80000000
ENDCHAR
STARTCHAR 00C4
ENCODING 196
SWIDTH 878 0
DWIDTH 29 0
BBX 35 30 -4 -4
BITMAP
0000000880
0000003300
0000003300
0000000000
000007FC00
00003807A0
0000C000E0
0001000020
0001000060
0001000040
00008000C0
0000400280
0000000580
0000000900
0000001300
0000002200
0000002200
0000FFF400
000F004F00
0070008800
0380010800
0600021000
18000C1000
3000102000
6000202000
C000402000
8001802000
800E002000
C070001800
3F80000000
ENDCHAR
STARTCHAR 00C5
ENCODING 197
SWIDTH 878 0
DWIDTH 29 0
BBX 37 31 -4 -4
BITMAP
0000000018
0000000028
0000000068
0000000048
0000000050
0000000060
000007FC00
00003807A0
0000C000E0
0001000020
0001000040
0001000080
0000800280
0000400500
0000000900
0000001200
0000002200
0000002200
0000FFF400
000F008B00
0070010800
0380021000
0600041000
1800082000
3000102000
6000202000
C000C02400
8001003800
800E000000
C070000000
3F80000000
ENDCHAR
STARTCHAR 00C6
ENCODING 198
SWIDTH 787 0
DWIDTH 26 0
BBX 32 20 -3 -4
BITMAP
00007BFD
00018F02
00060C02
00081800
00103000
00606000
0080FF80
01018000
0FFF0000
06020000
04040000
08040000
18080000
10080040
30080380
200C1C00
4007E000
40000000
80000000
80000000
ENDCHAR
STARTCHAR 00C7
ENCODING 199
SWIDTH 818 0
DWIDTH 27 0
BBX 25 31 2 -10
BITMAP
0003F800
07EC1C00
38560700
6181C100
C2003180
84000C80
88000380
90000000
50000000
2C000000
20000000
40000000
40000000
80000000
80000000
80000000
80000200
80000400
80000800
80001000
40006000
60018000
180E0000
07F00000
02000000
02000000
01000000
00800000
00800000
01000000
06000000
ENDCHAR
STARTCHAR 00C8
ENCODING 200
SWIDTH 939 0
DWIDTH 31 0
BBX 32 31 0 -4
BITMAP
00006000
00003000
00000C00
00000200
03E00000
0C1E0000
10038000
10007000
20001E00
20000780
200000F8
20000C1F
20001800
20001000
20002000
10002000
10004000
08004000
0807FF00
04388000
04008000
02010000
01030000
00020000
3F060000
C1FC0000
80080000
20170008
1060E004
0F801E04
000001F8
ENDCHAR
STARTCHAR 00C9
ENCODING 201
SWIDTH 939 0
DWIDTH 31 0
BBX 32 31 0 -4
BITMAP
00000180
00000300
00000C00
00001000
03E00000
0C1E0000
10038000
10007000
20001E00
20000780
200000F8
20000C1F
20000800
20001800
20003000
10002000
10006000
08004000
0807FE00
04388100
04008000
02010000
01030000
00020000
3F060000
C1FC0000
80080000
20170008
1060E004
0F801E04
000001F8
ENDCHAR
STARTCHAR 00CA
ENCODING 202
SWIDTH 939 0
DWIDTH 31 0
BBX 32 31 0 -4
BITMAP
00000400
00001E00
00002180
000040C0
03E00000
0C1E0000
10038000
10007000
20001E00
20000780
200000F8
20000C1F
20000800
20001800
20003000
10002000
10006000
08004000
0807FF00
04388000
04008000
02010000
01030000
00020000
3F060000
C1FC0000
80080000
20170008
1060E004
0F801E04
000001F8
ENDCHAR
STARTCHAR 00CB
ENCODING 203
SWIDTH 939 0
DWIDTH 31 0
BBX 32 30 0 -4
BITMAP
00000880
00003300
00003300
03E00000
0C1E0000
10038000
10007000
20001E00
20000780
200000F8
20000C1F
20000800
20001800
20003000
10002000
10006000
08004000
0807FF00
04388000
04008000
02010000
01030000
00020000
3F060000
C1FC0000
80080000
20170008
1060E004
0F801E04
000001F8
ENDCHAR
STARTCHAR 00CC
ENCODING 204
SWIDTH 666 0
DWIDTH 22 0
BBX 27 30 -2 -3
BITMAP
00003000
00001800
00000600
00000100
00000000
00000080
00001FE0
0003E180
001C0100
00600300
00C00200
00800200
01000200
01000400
01000400
01000800
01000800
00801000
005FFF00
01E03000
0E202000
10104000
20008000
40008000
80010000
80020000
800C0000
C0100000
60600000
3F800000
ENDCHAR
STARTCHAR 00CD
ENCODING 205
SWIDTH 666 0
DWIDTH 22 0
BBX 26 30 -2 -3
BITMAP
000000C0
00000180
00000600
00000800
00000000
00000000
00001FC0
0003E100
001C0300
00600200
00C00200
00800200
01000400
01000400
01000C00
01000800
01000800
00801000
005FFF00
01E02000
0E202000
10104000
20008000
40010000
80030000
80060000
80080000
C0100000
60600000
3F800000
ENDCHAR
STARTCHAR 00CE
ENCODING 206
SWIDTH 666 0
DWIDTH 22 0
BBX 27 30 -2 -3
BITMAP
00000200
00000F00
000010C0
00002060
00000000
00000080
00001FE0
0003E180
001C0180
00200100
00C00100
00800200
01000200
01000600
01000400
01000400
01000800
00800800
004FFF00
01F01000
0E202000
10104000
20004000
40008000
80010000
80020000
80040000
C0180000
60600000
3F800000
ENDCHAR
STARTCHAR 00CF
ENCODING 207
SWIDTH 666 0
DWIDTH 22 0
BBX 27 29 -2 -3
BITMAP
00000440
00001980
00001980
00000000
00000080
00001FE0
0003E180
001C0180
00200100
00C00300
00800200
01000200
01000600
01000400
01000C00
01000800
00801800
004FFF00
01F01000
0E202000
10004000
20004000
40008000
80010000
80020000
80040000
C0180000
60600000
3F800000
ENDCHAR
STARTCHAR 00D1
ENCODING 209
SWIDTH 818 0
DWIDTH 27 0
BBX 27 34 1 -8
BITMAP
0001E100
07821E00
08400000
10200000
202000E0
60300320
40100620
C0100820
80101060
80102040
801040C0
80108080
80110180
80120100
80140200
40280600
40300400
20300C00
10200800
00601800
00E01000
01402000
02C02000
04806000
09804000
11004000
1300C000
26008000
4C008000
70008400
00008400
00008800
00004800
00007000
ENDCHAR
STARTCHAR 00D2
ENCODING 210
SWIDTH 787 0
DWIDTH 26 0
BBX 24 32 2 -4
BITMAP
000C00
000600
000180
000040
000000
000FE0
007038
01800C
060006
080002
101003
202001
40C001
410001
820001
840001
840002
880002
900002
900004
900004
E00008
600008
600010
200020
300060
3800C0
2E0180
130300
18EC00
0C3800
03E600
ENDCHAR
STARTCHAR 00D3
ENCODING 211
SWIDTH 787 0
DWIDTH 26 0
BBX 24 32 2 -4
BITMAP
000030
000060
000180
000200
000000
000FE0
007038
01800C
060006
080002
101003
202001
40C001
410001
820001
840001
840002
880002
900002
900004
900004
E00008
600008
600010
200020
300060
3800C0
2E0180
130300
18EC00
0C3800
03E600
ENDCHAR
STARTCHAR 00D4
ENCODING 212
SWIDTH 787 0
DWIDTH 26 0
BBX 24 32 2 -4
BITMAP
000080
0003C0
000430
000818
000000
000FE0
007038
01800C
060006
080002
101003
202001
40C001
410001
820001
840001
840002
880002
900002
900004
900004
E00008
600008
600010
200020
300060
3800C0
2E0180
130300
18EE00
0C3800
03E700
ENDCHAR
STARTCHAR 00D5
ENCODING 213
SWIDTH 787 0
DWIDTH 26 0
BBX 24 31 2 -4
BITMAP
000E00
001188
000070
000000
000FE0
007038
01800C
060006
080002
101003
202001
40C001
410001
820001
840001
840002
880002
900002
900004
900004
E00008
600008
600010
200020
300040
3800C0
2E0180
130200
18EC00
0C3800
07E600
ENDCHAR
STARTCHAR 00D6
ENCODING 214
SWIDTH 787 0
DWIDTH 26 0
BBX 24 31 2 -4
BITMAP
000110
000660
000660
000000
000FE0
007038
01800C
060006
080002
101003
202001
40C001
410001
820001
840001
840002
880002
900002
900004
900004
E00008
600008
600010
200020
300060
3800C0
2E0180
130300
18EC00
0C3800
03E600
ENDCHAR
STARTCHAR 00D8
ENCODING 216
SWIDTH 606 0
DWIDTH 20 0
BBX 24 27 -2 -9
BITMAP
000001
000006
00000C
001FD0
007020
01F0D0
06C108
098208
030408
060818
041018
0C2010
184030
108060
3080C0
210180
220300
240E00
281800
28E000
1F8000
200000
200000
400000
400000
800000
800000
ENDCHAR
STARTCHAR 00D9
ENCODING 217
SWIDTH 878 0
DWIDTH 29 0
BBX 30 32 1 -6
BITMAP
00000600
00000300
000000C0
00000020
00000000
03FE0000
1C03F000
60003000
80002004
8000200C
80004008
40008018
20008030
00010030
00010060
000200E0
00020140
000401C0
00040280
00080480
00080580
00080900
00101100
00102300
00104200
00108200
00130210
001C0210
00000210
00000220
00000120
000000C0
ENDCHAR
STARTCHAR 00DA
ENCODING 218
SWIDTH 878 0
DWIDTH 29 0
BBX 29 32 1 -6
BITMAP
00000018
00000030
000000C0
00000100
00000000
03FE0000
1C03F000
60003000
80002000
80002008
80004018
40008010
20008030
00010060
00010060
000200C0
00020140
00040280
00040280
00080580
00080900
00080900
00101100
00102200
00104200
00108200
00130210
001C0210
00000210
00000220
00000120
000000C0
ENDCHAR
STARTCHAR 00DB
ENCODING 219
SWIDTH 878 0
DWIDTH 29 0
BBX 29 32 1 -6
BITMAP
00000080
000003C0
00000430
00000818
00000000
03FE0000
1C03F000
60003000
80002008
80002018
80004010
40008030
20008060
00010060
000100C0
00020140
000201C0
00040280
00040480
00080580
00080900
00081100
00101100
00102200
00104200
00108200
00130200
001C0220
00000220
00000220
00000120
000000C0
ENDCHAR
STARTCHAR 00DC
ENCODING 220
SWIDTH 878 0
DWIDTH 29 0
BBX 29 30 1 -6
BITMAP
00000110
00000660
00000660
03FE0000
1C03F000
60003000
80002000
80002008
80004018
40008010
20008030
000100E0
00010060
000201C0
000201C0
00040280
00040480
00080580
00080900
00081100
00102300
00102200
00104200
00108200
00130200
001C0220
00000220
00000220
00000120
000000C0
ENDCHAR
STARTCHAR 00DF
ENCODING 223
SWIDTH 303 0
DWIDTH 10 0
BBX 22 28 -9 -7
BITMAP
000078
0000CC
000184
000104
000304
000604
000408
000410
000860
0008C0
000900
001200
001200
001200
002200
002100
002100
004080
0040A0
004140
008E00
008000
010000
010000
820000
860000
4C0000
380000
ENDCHAR
STARTCHAR 00E0
ENCODING 224
SWIDTH 303 0
DWIDTH 10 0
BBX 12 16 -2 0
BITMAP
0300
0180
0060
0010
0000
0000
0000
00F0
03D0
07C0
0B80
1680
2D00
5900
A1C0
C100
ENDCHAR
STARTCHAR 00E1
ENCODING 225
SWIDTH 303 0
DWIDTH 10 0
BBX 14 16 -2 0
BITMAP
000C
0018
0060
0080
0000
0000
0000
00E0
03D0
05C0
0B80
1680
2D00
5100
A1C0
C100
ENDCHAR
STARTCHAR 00E2
ENCODING 226
SWIDTH 303 0
DWIDTH 10 0
BBX 14 16 -2 0
BITMAP
0040
01E0
0218
040C
0000
0000
0000
00E0
03D0
05C0
0B80
1680
2900
5100
A1C0
C100
ENDCHAR
STARTCHAR 00E3
ENCODING 227
SWIDTH 303 0
DWIDTH 10 0
BBX 15 14 -2 0
BITMAP
03C2
043C
0000
0000
0000
00E0
03D0
05C0
0B80
1680
2D00
5900
A1C0
C100
ENDCHAR
STARTCHAR 00E4
ENCODING 228
SWIDTH 303 0
DWIDTH 10 0
BBX 13 15 -2 0
BITMAP
0048
01B0
01B0
0000
0000
0000
00E0
03D0
0580
0B80
1680
2D00
5940
A180
C100
ENDCHAR
STARTCHAR 00E5
ENCODING 229
SWIDTH 303 0
DWIDTH 10 0
BBX 12 16 -2 0
BITMAP
0030
0050
0090
00B0
00E0
0000
0000
00F0
03D0
05C0
0B80
1680
2D00
5900
A1C0
C100
ENDCHAR
STARTCHAR 00E6
ENCODING 230
SWIDTH 424 0
DWIDTH 14 0
BBX 16 10 -2 -1
BITMAP
00FE
039A
0627
08DA
13E4
2488
4910
5120
A1C0
C000
ENDCHAR
STARTCHAR 00E7
ENCODING 231
SWIDTH 212 0
DWIDTH 7 0
BBX 8 15 -2 -6
BITMAP
03
05
08
10
20
22
44
48
70
40
40
20
20
20
C0
ENDCHAR
STARTCHAR 00E8
ENCODING 232
SWIDTH 242 0
DWIDTH 8 0
BBX 9 16 -1 0
BITMAP
1800
0C00
0300
0080
0000
0000
0600
0D00
0900
1280
2D00
7200
4400
8800
9000
E000
ENDCHAR
STARTCHAR 00E9
ENCODING 233
SWIDTH 242 0
DWIDTH 8 0
BBX 11 16 -1 0
BITMAP
0060
00C0
0300
0400
0000
0000
0600
0D00
0900
1280
2D00
F200
4400
8800
9000
E000
ENDCHAR
STARTCHAR 00EA
ENCODING 234
SWIDTH 242 0
DWIDTH 8 0
BBX 11 16 -1 0
BITMAP
0200
0F00
10C0
2060
0000
0000
0600
0D00
1100
2280
2D00
F200
4400
8800
9000
E000
ENDCHAR
STARTCHAR 00EB
ENCODING 235
SWIDTH 242 0
DWIDTH 8 0
BBX 10 15 -1 0
BITMAP
0440
1980
1980
0000
0000
0600
0D00
0900
1280
2D00
F200
4400
8800
9000
E000
ENDCHAR
STARTCHAR 00EC
ENCODING 236
SWIDTH 151 0
DWIDTH 5 0
BBX 8 16 -1 0
BITMAP
30
18
06
01
00
00
00
18
30
20
60
40
40
90
A0
C0
ENDCHAR
STARTCHAR 00ED
ENCODING 237
SWIDTH 151 0
DWIDTH 5 0
BBX 10 16 -1 0
BITMAP
00C0
0180
0600
0800
0000
0000
0000
1800
3000
2000
6000
4000
4000
9000
A000
C000
ENDCHAR
STARTCHAR 00EE
ENCODING 238
SWIDTH 151 0
DWIDTH 5 0
BBX 10 16 -1 0
BITMAP
0400
1E00
2180
40C0
0000
0000
0000
1800
3000
2000
6000
4000
4000
9000
A000
C000
ENDCHAR
STARTCHAR 00EF
ENCODING 239
SWIDTH 151 0
DWIDTH 5 0
BBX 9 15 -1 0
BITMAP
0880
3300
3300
0000
0000
0000
1800
3000
2000
6000
4000
4000
9000
A000
C000
ENDCHAR
STARTCHAR 00F1
ENCODING 241
SWIDTH 303 0
DWIDTH 10 0
BBX 14 14 -1 0
BITMAP
0784
0878
0000
0000
0000
0C80
1580
2B00
5700
9E00
9A00
3200
6380
4000
ENDCHAR
STARTCHAR 00F2
ENCODING 242
SWIDTH 242 0
DWIDTH 8 0
BBX 8 16 -1 0
BITMAP
30
18
06
01
00
0E
31
21
79
51
62
42
44
88
90
E0
ENDCHAR
STARTCHAR 00F3
ENCODING 243
SWIDTH 242 0
DWIDTH 8 0
BBX 10 16 -1 0
BITMAP
00C0
0180
0600
0800
0000
0E00
3100
2100
7900
5100
6200
4200
4400
8800
9000
E000
ENDCHAR
STARTCHAR 00F4
ENCODING 244
SWIDTH 242 0
DWIDTH 8 0
BBX 10 16 -1 0
BITMAP
0400
1E00
2180
40C0
0000
0E00
3100
2100
7900
5100
6200
4200
4400
8800
9000
E000
ENDCHAR
STARTCHAR 00F5
ENCODING 245
SWIDTH 242 0
DWIDTH 8 0
BBX 11 14 -1 0
BITMAP
3C20
43C0
0000
0E00
3100
2100
7900
5100
6200
4200
4400
8800
9000
E000
ENDCHAR
STARTCHAR 00F6
ENCODING 246
SWIDTH 242 0
DWIDTH 8 0
BBX 10 15 -1 0
BITMAP
0440
1980
1980
0000
0E00
3100
2100
7900
5100
6200
4200
4400
8800
9000
E000
ENDCHAR
STARTCHAR 00F7
ENCODING 247
SWIDTH 454 0
DWIDTH 15 0
BBX 11 9 2 2
BITMAP
0200
0400
0400
0000
FFE0
0000
0400
0800
0800
ENDCHAR
STARTCHAR 00F8
ENCODING 248
SWIDTH 242 0
DWIDTH 8 0
BBX 11 17 -1 -3
BITMAP
0020
0040
0080
0080
0F00
1300
2500
6900
5B00
7200
7200
6400
E800
D000
E000
8000
8000
ENDCHAR
STARTCHAR 00F9
ENCODING 249
SWIDTH 303 0
DWIDTH 10 0
BBX 10 16 -1 0
BITMAP
0C00
0600
0180
0040
0000
0000
0000
1880
2880
1100
1300
2600
4A00
5200
A280
C300
ENDCHAR
STARTCHAR 00FA
ENCODING 250
SWIDTH 303 0
DWIDTH 10 0
BBX 12 16 -1 0
BITMAP
0030
0060
0180
0200
0000
0000
0000
1880
2880
1100
1300
2600
4A00
5200
A280
C300
ENDCHAR
STARTCHAR 00FB
ENCODING 251
SWIDTH 303 0
DWIDTH 10 0
BBX 12 16 -1 0
BITMAP
0100
0780
0860
1030
0000
0000
0000
1880
2880
1100
1300
2E00
4A00
5200
A280
C300
ENDCHAR
STARTCHAR 00FC
ENCODING 252
SWIDTH 303 0
DWIDTH 10 0
BBX 11 15 -1 0
BITMAP
0220
0CC0
0CC0
0000
0000
0000
1880
2880
1100
1300
2E00
4A00
5200
A280
C300
ENDCHAR
STARTCHAR 00FF
ENCODING 255
SWIDTH 272 0
DWIDTH 9 0
BBX 18 27 -8 -12
BITMAP
000440
001980
001980
000000
000000
000000
002000
006100
00A700
016900
015300
006200
00E200
00C600
018400
000400
000800
000800
001000
001000
002000
006000
004000
808000
810000
460000
780000
ENDCHAR
STARTCHAR 0131
ENCODING 305
SWIDTH 151 0
DWIDTH 5 0
BBX 5 9 -1 1
BITMAP
18
30
20
60
40
40
90
A0
C0
ENDCHAR
STARTCHAR 0152
ENCODING 338
SWIDTH 939 0
DWIDTH 31 0
BBX 34 18 0 -1
BITMAP
003F03FFC0
01C0C1C080
07C0230080
0B00260000
16002C0000
0C00380000
18003FF000
1000380000
2000400000
6000800000
4000800000
C001000000
8003000000
800E001000
801200E000
8063070000
C181F80000
7E00000000
ENDCHAR
STARTCHAR 0153
ENCODING 339
SWIDTH 393 0
DWIDTH 13 0
BBX 14 11 -1 0
BITMAP
0E00
3130
2128
7148
7194
6368
4390
4620
8C40
9C80
E700
ENDCHAR
STARTCHAR 0178
ENCODING 376
SWIDTH 878 0
DWIDTH 29 0
BBX 36 40 -5 -16
BITMAP
0000000440
0000001980
0000001980
0007FC0000
003803E000
00C0006000
0180004000
0100008000
0100008080
0080010180
0000020180
0000020300
0000040300
0000080500
0000080B00
0000100A00
0000101200
0000202200
0000204400
0000408400
0000408400
0000810400
0000820800
0000840800
0000981000
0000E01000
00FFFC1010
0F0007E030
3000003FE0
4000002000
8000004000
8000008000
8000010000
8000020000
8000020000
40000C0000
6000100000
3000600000
0E01800000
03FE000000
ENDCHAR
STARTCHAR 0192
ENCODING 402
SWIDTH 454 0
DWIDTH 15 0
BBX 21 28 -4 -8
BITMAP
0000F0
000190
000308
000608
000408
000400
000800
000800
001800
007F00
001000
001000
002000
002000
002000
006000
004000
004000
004000
008000
008000
008000
010000
010000
820000
860000
8C0000
780000
ENDCHAR
STARTCHAR 02C6
ENCODING 710
SWIDTH 363 0
DWIDTH 12 0
BBX 9 4 3 12
BITMAP
0800
3C00
4300
8180
ENDCHAR
STARTCHAR 02C7
ENCODING 711
SWIDTH 363 0
DWIDTH 12 0
BBX 9 4 3 12
BITMAP
8080
6100
3600
1800
ENDCHAR
STARTCHAR 02C9
ENCODING 713
SWIDTH 363 0
DWIDTH 12 0
BBX 8 1 3 12
BITMAP
FF
ENDCHAR
STARTCHAR 02D8
ENCODING 728
SWIDTH 363 0
DWIDTH 12 0
BBX 6 3 4 12
BITMAP
80
84
78
ENDCHAR
STARTCHAR 02D9
ENCODING 729
SWIDTH 363 0
DWIDTH 12 0
BBX 3 3 6 12
BITMAP
20
C0
C0
ENDCHAR
STARTCHAR 02DA
ENCODING 730
SWIDTH 363 0
DWIDTH 12 0
BBX 4 5 5 11
BITMAP
30
50
90
B0
E0
ENDCHAR
STARTCHAR 02DB
ENCODING 731
SWIDTH 363 0
DWIDTH 12 0
BBX 5 5 1 -4
BITMAP
40
80
80
88
F0
ENDCHAR
STARTCHAR 02DC
ENCODING 732
SWIDTH 363 0
DWIDTH 12 0
BBX 10 2 2 11
BITMAP
3840
C780
ENDCHAR
STARTCHAR 02DD
ENCODING 733
SWIDTH 363 0
DWIDTH 12 0
BBX 8 5 5 12
BITMAP
1B
12
24
48
90
ENDCHAR
STARTCHAR 0394
ENCODING 916
SWIDTH 484 0
DWIDTH 16 0
BBX 16 24 0 1
BITMAP
0080
0180
0180
01C0
02C0
0240
0260
0460
0420
0420
0830
0810
0810
1018
1018
1008
200C
200C
2004
4006
4006
4002
FFFF
FFFF
ENDCHAR
STARTCHAR 03A9
ENCODING 937
SWIDTH 757 0
DWIDTH 25 0
BBX 23 24 1 0
BITMAP
00FE00
038380
0600C0
0C0060
180030
180030
300018
300018
300018
300018
300018
300018
300018
300010
180030
180030
080020
0C0060
840042
8600C2
820082
C10106
7F01FC
7F83FC
ENDCHAR
STARTCHAR 03BC
ENCODING 956
SWIDTH 515 0
DWIDTH 17 0
BBX 18 21 -1 -6
BITMAP
0C0600
0C0600
0C0600
0C0600
080C00
180C00
180C00
180C00
181800
381840
381840
283880
2C4D80
278F00
600000
600000
600000
600000
E00000
E00000
C00000
ENDCHAR
STARTCHAR 03C0
ENCODING 960
SWIDTH 636 0
DWIDTH 21 0
BBX 20 14 0 0
BITMAP
1FFFF0
3FFFF0
610200
410200
410400
C30400
020400
020C00
060C00
060C00
061C00
0E1C00
0E1800
0C1800
ENDCHAR
STARTCHAR 2013
ENCODING 8211
SWIDTH 515 0
DWIDTH 17 0
BBX 13 1 1 5
BITMAP
FFF8
ENDCHAR
STARTCHAR 2014
ENCODING 8212
SWIDTH 757 0
DWIDTH 25 0
BBX 24 1 0 5
BITMAP
FFFFFF
ENDCHAR
STARTCHAR 2018
ENCODING 8216
SWIDTH 121 0
DWIDTH 4 0
BBX 3 7 5 15
BITMAP
20
40
40
80
80
80
80
ENDCHAR
STARTCHAR 2019
ENCODING 8217
SWIDTH 121 0
DWIDTH 4 0
BBX 3 7 3 15
BITMAP
20
20
20
40
40
40
80
ENDCHAR
STARTCHAR 201A
ENCODING 8218
SWIDTH 121 0
DWIDTH 4 0
BBX 3 7 -3 -4
BITMAP
20
20
20
40
40
40
80
ENDCHAR
STARTCHAR 201C
ENCODING 8220
SWIDTH 212 0
DWIDTH 7 0
BBX 7 7 4 15
BITMAP
02
44
44
88
88
88
88
ENDCHAR
STARTCHAR 201D
ENCODING 8221
SWIDTH 212 0
DWIDTH 7 0
BBX 6 7 3 15
BITMAP
24
24
24
48
48
90
80
ENDCHAR
STARTCHAR 201E
ENCODING 8222
SWIDTH 212 0
DWIDTH 7 0
BBX 6 7 -3 -4
BITMAP
24
24
24
48
48
88
90
ENDCHAR
STARTCHAR 2020
ENCODING 8224
SWIDTH 454 0
DWIDTH 15 0
BBX 13 28 1 -9
BITMAP
0008
0018
0030
0020
0040
00C0
0080
01F0
0F00
3A00
0400
0400
0800
0800
1000
1000
2000
2000
2000
4000
4000
4000
8000
8000
8000
8000
8000
8000
ENDCHAR
STARTCHAR 2021
ENCODING 8225
SWIDTH 454 0
DWIDTH 15 0
BBX 13 28 1 -9
BITMAP
0008
0018
0030
0020
0040
00C0
0080
0180
0FE0
3200
0400
3FC0
6800
0800
1000
1000
2000
2000
4000
4000
4000
4000
8000
8000
8000
8000
8000
8000
ENDCHAR
STARTCHAR 2022
ENCODING 8226
SWIDTH 575 0
DWIDTH 19 0
BBX 10 10 5 6
BITMAP
1E00
7F80
7F80
FFC0
FFC0
FFC0
FFC0
7F80
7F80
1E00
ENDCHAR
STARTCHAR 2026
ENCODING 8230
SWIDTH 454 0
DWIDTH 15 0
BBX 14 3 -1 0
BITMAP
2104
C618
C618
ENDCHAR
STARTCHAR 2030
ENCODING 8240
SWIDTH 818 0
DWIDTH 27 0
BBX 25 29 -1 -6
BITMAP
0007F800
00180600
00100300
00100400
01901800
03103000
02206000
0620C000
04418000
0C420000
08840000
09080000
0E100000
00200000
00400000
00830300
008C8C80
01169680
02149480
042D2D00
08090900
08111100
10121200
20242400
40242400
40383800
80000000
80000000
80000000
ENDCHAR
STARTCHAR 2039
ENCODING 8249
SWIDTH 242 0
DWIDTH 8 0
BBX 6 10 1 1
BITMAP
04
08
10
20
40
C0
C0
60
20
10
ENDCHAR
STARTCHAR 203A
ENCODING 8250
SWIDTH 242 0
DWIDTH 8 0
BBX 6 10 0 1
BITMAP
20
10
18
0C
0C
08
10
20
40
80
ENDCHAR
STARTCHAR 2122
ENCODING 8482
SWIDTH 666 0
DWIDTH 22 0
BBX 19 11 4 11
BITMAP
7FE000
986020
106060
106060
20A0A0
20B140
609240
418C40
410040
C10040
810000
ENDCHAR
STARTCHAR 2202
ENCODING 8706
SWIDTH 424 0
DWIDTH 14 0
BBX 10 21 2 -2
BITMAP
1E00
3100
0080
0080
0040
0040
0040
0040
0040
0040
0240
0E40
1880
1080
2080
4100
4100
8200
8600
8C00
7000
ENDCHAR
STARTCHAR 220F
ENCODING 8719
SWIDTH 757 0
DWIDTH 25 0
BBX 23 30 1 -6
BITMAP
FFFFFE
180030
180030
180030
180030
180030
180030
180030
180030
180030
180030
180030
180030
180030
180030
180030
180030
180030
180030
180030
180030
180030
180030
180030
180030
180030
180030
180030
180030
FF01FE
ENDCHAR
STARTCHAR 2211
ENCODING 8721
SWIDTH 666 0
DWIDTH 22 0
BBX 22 31 0 -7
BITMAP
FFFFC0
600040
380040
1C0020
0E0020
070000
038000
01C000
00E000
007000
003800
001C00
000600
000300
000180
0000C0
0000C0
000180
000200
000400
000800
001000
002000
00C000
018004
030004
040008
080008
100008
3FFFF8
7FFFF0
ENDCHAR
STARTCHAR 2215
ENCODING 8725
SWIDTH 242 0
DWIDTH 8 0
BBX 25 27 -4 -4
BITMAP
00000180
00000200
00000C00
00001800
00003000
00006000
00008000
00010000
00020000
00040000
00080000
00100000
00200000
00400000
00800000
01000000
02000000
04000000
04000000
08000000
10000000
20000000
20000000
40000000
40000000
80000000
80000000
ENDCHAR
STARTCHAR 221A
ENCODING 8730
SWIDTH 606 0
DWIDTH 20 0
BBX 19 26 1 0
BITMAP
0000E0
000080
000080
000100
000100
000300
000200
000200
000400
000400
100400
F00800
300800
381000
181000
181000
0C2000
0C2000
0E2000
064000
064000
078000
038000
038000
010000
010000
ENDCHAR
STARTCHAR 221E
ENCODING 8734
SWIDTH 818 0
DWIDTH 27 0
BBX 19 12 4 4
BITMAP
1C0F00
7F1D80
613040
C0A060
806020
804020
804020
804020
80C060
41A0C0
231FC0
1E0700
ENDCHAR
STARTCHAR 222B
ENCODING 8747
SWIDTH 454 0
DWIDTH 15 0
BBX 14 31 1 -6
BITMAP
0078
00FC
00BC
0198
0100
0100
0100
0300
0300
0300
0300
0300
0300
0300
0300
0300
0300
0300
0300
0300
0300
0300
0300
0300
0200
0200
0200
6600
F400
FC00
7800
ENDCHAR
STARTCHAR 2248
ENCODING 8776
SWIDTH 454 0
DWIDTH 15 0
BBX 11 5 2 4
BITMAP
7820
87C0
0000
7820
87C0
ENDCHAR
STARTCHAR 2260
ENCODING 8800
SWIDTH 454 0
DWIDTH 15 0
BBX 10 9 2 2
BITMAP
0100
0200
FFC0
0400
0800
0800
FFC0
1000
2000
ENDCHAR
STARTCHAR 2264
ENCODING 8804
SWIDTH 454 0
DWIDTH 15 0
BBX 10 9 2 2
BITMAP
2000
1C00
0300
0200
0400
1800
2000
0000
FFC0
ENDCHAR
STARTCHAR 2265
ENCODING 8805
SWIDTH 454 0
DWIDTH 15 0
BBX 10 9 2 2
BITMAP
0100
0600
0800
1000
3000
0C00
0300
0000
FFC0
ENDCHAR
STARTCHAR 25CA
ENCODING 9674
SWIDTH 484 0
DWIDTH 16 0
BBX 16 32 0 -7
BITMAP
0180
0180
03C0
03C0
0260
0660
0430
0C30
0818
1818
180C
300C
3006
6006
6003
C003
C003
6002
6006
3006
300C
180C
1818
0C18
0C30
0430
0660
0260
03C0
03C0
0180
0180
ENDCHAR
STARTCHAR F8FF
ENCODING 63743
SWIDTH 787 0
DWIDTH 26 0
BBX 22 27 2 0
BITMAP
000180
000380
000780
000F00
000E00
001C00
000000
0FC7F0
3FFFF8
7FFFF8
7FFFF0
FFFFE0
FFFFE0
FFFFE0
FFFFE0
FFFFE0
FFFFE0
FFFFE0
FFFFF0
7FFFF8
7FFFFC
3FFFF8
3FFFF8
1FFFF0
1FFFF0
0FFFE0
0383C0
ENDCHAR
STARTCHAR FB01
ENCODING 64257
SWIDTH 363 0
DWIDTH 12 0
BBX 28 38 -10 -12
BITMAP
000001E0
00000710
00000E10
00000C10
00001810
00003000
00002000
00006000
00004000
0000C000
00008000
00018000
00010000
00010000
00020000
00020600
00040400
00041800
00043000
003FA000
00086000
00104000
00104000
00109000
0020A000
0020C000
00200000
00400000
00400000
00400000
00800000
00800000
01000000
03000000
82000000
86000000
8C000000
70000000
ENDCHAR
STARTCHAR FB02
ENCODING 64258
SWIDTH 393 0
DWIDTH 13 0
BBX 29 38 -10 -12
BITMAP
000001E0
00000730
00000E10
00001C10
00001810
00003018
00002068
000060D8
00004090
0000C120
00008220
00018240
00010480
00010C80
00020900
00021A00
00041400
00043400
00042800
003F7000
00086000
00084000
00108000
00108000
00208000
0020A000
0020C000
00400000
00400000
00400000
00800000
00800000
01000000
03000000
82000000
86000000
8C000000
70000000
ENDCHAR
ENDFONT
